<svg width="25" height="22" viewBox="0 0 25 22" fill="none" xmlns="http://www.w3.org/2000/svg">
<path d="M21.49 12.0834C21.2242 12.0834 20.9463 12.0076 20.6804 11.9534C20.1421 11.847 19.6131 11.7058 19.0975 11.5309C18.5369 11.3481 17.9208 11.3576 17.3675 11.5576C16.8143 11.7575 16.3631 12.1339 16.1008 12.6142L15.835 13.1017C14.6581 12.5148 13.5766 11.7857 12.6208 10.9351C11.672 10.0782 10.8589 9.10856 10.2042 8.05339L10.7117 7.75006C11.2474 7.51489 11.6672 7.11038 11.8903 6.61439C12.1133 6.1184 12.1239 5.56597 11.92 5.06339C11.7281 4.60018 11.5707 4.12609 11.4488 3.64423C11.3883 3.40589 11.34 3.15673 11.3038 2.90756C11.157 2.14448 10.7112 1.45345 10.0466 0.958903C9.38204 0.464359 8.54234 0.198803 7.67875 0.210061H4.05375C3.533 0.205677 3.0173 0.301942 2.54177 0.492302C2.06625 0.682662 1.64205 0.962648 1.29806 1.3132C0.954073 1.66375 0.698371 2.07664 0.54836 2.52375C0.39835 2.97086 0.357554 3.44171 0.42875 3.90423C1.07248 8.44272 3.38437 12.6596 6.99925 15.8888C10.6141 19.1179 15.3259 21.1753 20.3904 21.7359H20.8496C21.7406 21.7371 22.6009 21.444 23.2663 20.9126C23.6485 20.606 23.9539 20.2303 24.1622 19.8101C24.3705 19.3899 24.477 18.9349 24.4746 18.4751V15.2251C24.4598 14.4726 24.1541 13.748 23.6098 13.175C23.0655 12.6021 22.3163 12.2162 21.49 12.0834ZM22.0942 18.5834C22.094 18.7372 22.0572 18.8892 21.9864 19.0293C21.9155 19.1694 21.8122 19.2944 21.6833 19.3959C21.5483 19.5004 21.3904 19.5785 21.2198 19.6251C21.0492 19.6718 20.8696 19.6859 20.6925 19.6667C16.1672 19.1465 11.9638 17.2904 8.74537 14.3912C5.52695 11.492 3.47666 7.71468 2.91792 3.65506C2.89869 3.49637 2.91554 3.33583 2.96746 3.18315C3.01938 3.03047 3.10529 2.88881 3.22 2.76673C3.33323 2.65117 3.47262 2.55856 3.62887 2.49505C3.78513 2.43154 3.95468 2.39859 4.12625 2.39839H7.75125C8.03224 2.39279 8.30663 2.47518 8.52717 2.63139C8.74772 2.78759 8.90063 3.00784 8.95958 3.25423C9.00792 3.55034 9.06833 3.84284 9.14083 4.13173C9.28042 4.7028 9.46619 5.26401 9.69667 5.81089L8.005 6.51506C7.86036 6.57456 7.73025 6.65909 7.62215 6.76379C7.51405 6.86849 7.43008 6.99131 7.37506 7.12519C7.32005 7.25907 7.29507 7.40137 7.30157 7.54393C7.30806 7.68648 7.3459 7.82648 7.41292 7.95589C9.15195 11.2955 12.1463 13.9801 15.8713 15.5392C16.1654 15.6476 16.4954 15.6476 16.7896 15.5392C16.9403 15.4909 17.0788 15.4162 17.197 15.3195C17.3152 15.2228 17.4109 15.106 17.4783 14.9759L18.2275 13.4592C18.8522 13.6595 19.4897 13.8259 20.1367 13.9576C20.4589 14.0226 20.7851 14.0767 21.1154 14.1201C21.3902 14.1729 21.6359 14.31 21.8101 14.5077C21.9844 14.7055 22.0763 14.9515 22.07 15.2034L22.0942 18.5834Z" fill="white"/>
</svg>
