<svg width="28" height="22" viewBox="0 0 28 22" fill="none" xmlns="http://www.w3.org/2000/svg">
<path d="M2.66861 9.52598C9.91635 6.48521 14.7493 4.48054 17.1675 3.51199C24.0719 0.746568 25.5066 0.266185 26.4417 0.250154C26.6474 0.246834 27.1072 0.295916 27.4051 0.52867C27.6566 0.725202 27.7258 0.990689 27.7589 1.17702C27.792 1.36336 27.8333 1.78783 27.8005 2.1195C27.4263 5.90515 25.8074 15.0919 24.9838 19.3319C24.6353 21.126 23.949 21.7276 23.2847 21.7864C21.8409 21.9144 20.7446 20.8676 19.3462 19.9849C17.158 18.6037 15.9219 17.7438 13.7979 16.396C11.3432 14.8383 12.9345 13.9822 14.3334 12.5831C14.6995 12.2169 21.0608 6.64512 21.1839 6.13967C21.1993 6.07646 21.2136 5.84082 21.0682 5.7164C20.9228 5.59197 20.7083 5.63452 20.5534 5.66836C20.334 5.71633 16.8384 7.94124 10.0666 12.3431C9.07434 12.9992 8.17562 13.3189 7.37039 13.3021C6.4827 13.2836 4.77512 12.8188 3.50572 12.4214C1.94874 11.9341 0.711287 11.6764 0.819041 10.8487C0.875166 10.4176 1.49169 9.97667 2.66861 9.52598Z" fill="white"/>
</svg>
