<svg width="27" height="27" viewBox="0 0 27 27" fill="none" xmlns="http://www.w3.org/2000/svg">
<path d="M17.4692 0.583252H9.54425C2.30551 0.583252 0.583313 2.30544 0.583313 9.5307V17.4556C0.583313 24.6943 2.29211 26.4166 9.53077 26.4166H17.4557C24.6945 26.4166 26.4166 24.7078 26.4166 17.4691V9.54419C26.4166 2.30544 24.7078 0.583252 17.4692 0.583252ZM21.4383 19.0164H19.5547C18.8416 19.0164 18.6263 18.4378 17.3481 17.1596C16.2313 16.0833 15.7604 15.9487 15.4778 15.9487C15.0877 15.9487 14.98 16.0563 14.98 16.5945V18.2898C14.98 18.7473 14.832 19.0164 13.6346 19.0164C12.4726 18.9383 11.3457 18.5853 10.3469 17.9865C9.34801 17.3876 8.5057 16.56 7.8893 15.5719C6.42598 13.7506 5.40783 11.6129 4.91581 9.32888C4.91581 9.04633 5.02342 8.79067 5.56164 8.79067H7.44529C7.92967 8.79067 8.10461 9.00596 8.29295 9.50382C9.20785 12.1948 10.7687 14.5359 11.401 14.5359C11.6432 14.5359 11.7508 14.4283 11.7508 13.8228V11.0511C11.6701 9.78638 10.9974 9.67869 10.9974 9.22127C11.0062 9.10059 11.0618 8.98811 11.1522 8.90771C11.2427 8.82732 11.3609 8.78533 11.4818 8.79067H14.4418C14.8455 8.79067 14.98 8.99249 14.98 9.47687V13.2174C14.98 13.621 15.1549 13.7555 15.276 13.7555C15.5182 13.7555 15.7065 13.621 16.1506 13.177C17.1047 12.0134 17.8843 10.7171 18.4648 9.32888C18.5241 9.16184 18.6364 9.01879 18.7846 8.9216C18.9328 8.82441 19.1088 8.77842 19.2856 8.79067H21.1693C21.7344 8.79067 21.8554 9.07322 21.7344 9.47687C21.049 11.0118 20.2009 12.4688 19.2049 13.8228C19.003 14.1323 18.9223 14.2937 19.2049 14.657C19.3932 14.9396 20.0525 15.4912 20.4965 16.0159C21.1424 16.6601 21.6786 17.4055 22.0841 18.2226C22.2456 18.7473 21.9765 19.0164 21.4383 19.0164Z" fill="white"/>
</svg>
