<svg width="28" height="26" viewBox="0 0 28 26" fill="none" xmlns="http://www.w3.org/2000/svg">
<path fill-rule="evenodd" clip-rule="evenodd" d="M23.45 3.7375C20.9188 1.3 17.5438 0 14 0C6.575 0 0.5 5.85 0.5 13C0.5 15.275 1.17501 17.55 2.35626 19.5L0.5 26L7.58752 24.2125C9.61252 25.1875 11.8062 25.8375 14 25.8375C21.425 25.8375 27.5 19.9875 27.5 12.8375C27.5 9.425 25.9813 6.175 23.45 3.7375ZM14 23.725C11.975 23.725 9.95001 23.2375 8.26251 22.2625L7.92499 22.1L3.70624 23.2375L4.88751 19.3375L4.54999 18.85C3.36874 17.0625 2.86249 15.1125 2.86249 13.1625C2.86249 7.3125 7.925 2.4375 14 2.4375C17.0375 2.4375 19.7375 3.575 21.9313 5.525C24.125 7.6375 25.1375 10.2375 25.1375 13.1625C25.1375 18.85 20.2437 23.725 14 23.725ZM20.075 15.6C19.7375 15.4375 18.05 14.625 17.7125 14.625C17.375 14.4625 17.2062 14.4625 17.0375 14.7875C16.8687 15.1125 16.1938 15.7625 16.025 16.0875C15.8563 16.25 15.6875 16.25 15.35 16.25C15.0125 16.0875 14 15.7625 12.65 14.625C11.6375 13.8125 10.9625 12.675 10.7938 12.35C10.625 12.025 10.7938 11.8625 10.9625 11.7C11.1313 11.5375 11.3 11.375 11.4688 11.2125C11.6375 11.05 11.6375 10.8875 11.8063 10.725C11.975 10.5625 11.8063 10.4 11.8063 10.2375C11.8063 10.075 11.1313 8.45 10.7938 7.8C10.625 7.3125 10.2875 7.3125 10.1188 7.3125C9.95002 7.3125 9.78123 7.3125 9.44373 7.3125C9.27498 7.3125 8.93748 7.3125 8.59998 7.6375C8.26248 7.9625 7.41876 8.775 7.41876 10.4C7.41876 12.025 8.59999 13.4875 8.76874 13.8125C8.93749 13.975 11.1312 17.3875 14.5062 18.6875C17.375 19.825 17.8813 19.5 18.5563 19.5C19.2313 19.5 20.5812 18.6875 20.75 18.0375C21.0875 17.225 21.0875 16.575 20.9188 16.575C20.75 15.7625 20.4125 15.7625 20.075 15.6Z" fill="white"/>
</svg>
